<svg width="498" height="320" viewBox="0 0 498 320" fill="none" xmlns="http://www.w3.org/2000/svg">
<path d="M492.234 305.96C492.099 313.691 485.723 319.848 477.992 319.713L301.424 316.631C293.929 316.501 287.867 310.49 287.673 302.998L286.917 273.932C286.856 271.594 287.382 269.279 288.446 267.196L371.363 104.973C376.075 95.7527 369.494 84.7841 359.141 84.6034L298.212 83.5399C290.832 83.4111 284.819 77.5733 284.472 70.1994L282.143 20.6512C281.763 12.5735 288.287 5.85483 296.372 5.99596L479.108 9.18562C486.561 9.31573 492.606 15.2637 492.856 22.7143L493.939 55.0271C494.015 57.2784 493.546 59.5147 492.573 61.5462L413.176 227.24C408.768 236.437 415.359 247.109 425.557 247.287L479.24 248.224C486.971 248.359 493.129 254.736 492.994 262.467L492.234 305.96Z" fill="#07077B"/>
<path d="M216.266 14.5513C216.131 6.82047 209.755 0.662806 202.024 0.797748L25.4553 3.87976C17.961 4.01058 11.8992 10.0208 11.7044 17.5137L10.9486 46.5792C10.8878 48.9169 11.4135 51.2325 12.4778 53.3148L95.3944 215.538C100.107 224.759 93.526 235.727 83.1727 235.908L22.2442 236.971C14.8633 237.1 8.8506 242.938 8.50397 250.312L6.1748 299.86C5.79508 307.938 12.3183 314.656 20.4037 314.515L203.14 311.326C210.593 311.196 216.638 305.248 216.887 297.797L217.971 265.484C218.047 263.233 217.578 260.996 216.604 258.965L137.207 93.2716C132.8 84.0742 139.391 73.4019 149.588 73.2239L203.272 72.2869C211.003 72.1519 217.16 65.7755 217.025 58.0447L216.266 14.5513Z" fill="#07077B"/>
</svg>
